<svg width="25" height="22" viewBox="0 0 25 22" fill="none" xmlns="http://www.w3.org/2000/svg">
	<path d="M19.6292 3.7931H4.6465C4.38463 3.7931 4.17236 3.58083 4.17236 3.31896V2.08621C4.17236 0.934003 5.10637 0 6.25857 0H18.0172C19.1694 0 20.1034 0.934003 20.1034 2.08621V3.31896C20.1034 3.58083 19.8911 3.7931 19.6292 3.7931Z" fill="url(#paint0_linear)"/>
	<path d="M21.7155 5.31055H2.56034C1.14855 5.31055 0 6.4591 0 7.87089V16.7847C0 18.1965 1.14855 19.345 2.56034 19.345H4.17241V15.5519C4.17241 13.6695 5.70383 12.1381 7.5862 12.1381H16.6896C18.572 12.1381 20.1034 13.6695 20.1034 15.5519V19.345H21.7155C23.1273 19.345 24.2758 18.1965 24.2758 16.7847V7.87089C24.2758 6.4591 23.1273 5.31055 21.7155 5.31055ZM4.55267 11.0002C3.9242 11.0002 3.4145 10.4907 3.4145 9.86227C3.4145 9.2338 3.92372 8.72434 4.55219 8.72434H4.55267C5.18114 8.72434 5.6906 9.2338 5.6906 9.86227C5.6906 10.4907 5.18114 11.0002 4.55267 11.0002Z" fill="url(#paint1_linear)"/>
	<path d="M16.6896 14.4136H7.58617C6.9577 14.4136 6.44824 14.923 6.44824 15.5515V19.3446V20.8618C6.44824 21.4903 6.9577 21.9998 7.58617 21.9998H16.6896C17.3181 21.9998 17.8275 21.4903 17.8275 20.8618V19.3446V15.5515C17.8275 14.923 17.3181 14.4136 16.6896 14.4136Z" fill="url(#paint2_linear)"/>
	<defs>
	<linearGradient id="paint0_linear" x1="4.3826" y1="3.10165e-07" x2="13.1227" y2="9.0027" gradientUnits="userSpaceOnUse">
	<stop offset="0.296875" stop-color="#ED2541"/>
	<stop offset="1" stop-color="#EC5E0F" stop-opacity="0.9"/>
	</linearGradient>
	<linearGradient id="paint1_linear" x1="0.320355" y1="5.31055" x2="23.5829" y2="15.1789" gradientUnits="userSpaceOnUse">
	<stop offset="0.296875" stop-color="#ED2541"/>
	<stop offset="1" stop-color="#EC5E0F" stop-opacity="0.9"/>
	</linearGradient>
	<linearGradient id="paint2_linear" x1="6.59841" y1="14.4136" x2="17.9313" y2="18.5827" gradientUnits="userSpaceOnUse">
	<stop offset="0.296875" stop-color="#ED2541"/>
	<stop offset="1" stop-color="#EC5E0F" stop-opacity="0.9"/>
	</linearGradient>
	</defs>
	</svg>
	